# xmcd
#
# Track frame offsets:
#  150
#  10812
#  20214
#  30495
#  41736
#  53434
#  63301
#  83456
#  95411
#  107124
#  117719
#  129322
#  139784
#  142848
#  156842
#  172162
#  178180
#  189172
#  205582
#  220662
#  231981
#  244319
#  262647
#  265602
#
# Disc length: 3742 seconds
#
# Revision: 0
# Processed by: cddbd v1.5.1PL0 Copyright (c) Steve Scherf et al.
# Submitted via: Collectorz.com Music Collector 6.9
#
DISCID=430e9c18
DTITLE=Firehose - Live 1993/06/13 Limelight (Sioux City Falls)
DYEAR=1993
DGENRE=
TTITLE0=Unknown Trackname 1
TTITLE1=Honey, Please
TTITLE2=What Gets Heard
TTITLE3=Unknown Trackname 2
TTITLE4=Down with the Bass
TTITLE5=In My Mind
TTITLE6=Formal Introduction
TTITLE7=Epoxy, For Example
TTITLE8=Drum Solo
TTITLE9=Unknown Trackname 3
TTITLE10=Toolin'
TTITLE11=Unknown Trackname 4
TTITLE12=Brave Captain
TTITLE13=Tha Candle And the Flame
TTITLE14=Me And You Remember
TTITLE15=Chemical Wire
TTITLE16=The Cliffs Thrown Down
TTITLE17=Blaze
TTITLE18=Flyin' the Flanel
TTITLE19=Making the Freeway
TTITLE20=Slack Motherfucker
TTITLE21=Badges
TTITLE22=Unknown Trackname 5
TTITLE23=Revolution
EXTD=
EXTT0=
EXTT1=
EXTT2=
EXTT3=
EXTT4=
EXTT5=
EXTT6=
EXTT7=
EXTT8=
EXTT9=
EXTT10=
EXTT11=
EXTT12=
EXTT13=
EXTT14=
EXTT15=
EXTT16=
EXTT17=
EXTT18=
EXTT19=
EXTT20=
EXTT21=
EXTT22=
EXTT23=
PLAYORDER=
